<?xml version="1.0" encoding="iso-8859-1"?>
<!-- Generator: Adobe Illustrator 19.0.0, SVG Export Plug-In . SVG Version: 6.00 Build 0)  -->
<svg version="1.1" id="Capa_1" xmlns="http://www.w3.org/2000/svg" xmlns:xlink="http://www.w3.org/1999/xlink" x="0px" y="0px"
	 viewBox="0 0 581.117 581.117" style="enable-background:new 0 0 581.117 581.117;" xml:space="preserve">
<g>
	<g>
		<g>
			<path style="fill:#ffffff;" d="M290.462,228.082c36.53,0,66.119-29.576,66.119-65.988c0-36.53-29.638-66.057-66.119-66.057
				c-36.398,0-65.974,29.527-65.974,66.057C224.488,198.52,254.05,228.082,290.462,228.082z"/>
			<path style="fill:#ffffff;" d="M99.555,182.085c26.075,0,47.171-21.041,47.171-47.053c-0.021-26.054-21.089-47.129-47.171-47.129
				c-25.957,0-47.095,21.075-47.095,47.129C52.46,161.044,73.598,182.085,99.555,182.085z"/>
			<circle style="fill:#ffffff;" cx="481.465" cy="134.983" r="47.081"/>
			<polygon style="fill:#ffffff;" points="581.117,295.182 561.782,205.612 512.754,194.743 502.748,184.675 487.873,200.743 
				496.125,288.939 481.541,305.215 467.192,289.236 475.423,200.743 460.569,184.675 450.488,194.743 401.439,205.612 
				390.162,258.065 334.366,245.739 320.217,231.673 299.453,254.233 311.012,377.784 290.51,400.579 270.464,378.212 
				282.037,254.233 261.169,231.673 247.11,245.739 191.204,258.1 179.872,205.612 130.871,194.743 120.789,184.675 
				105.963,200.743 114.215,288.939 99.603,305.215 85.289,289.236 93.513,200.743 78.639,184.675 68.605,194.743 19.528,205.612 
				0.242,295.182 0,295.182 35.853,371.314 154.598,371.314 151.304,386.533 150.945,386.561 201.21,493.215 379.887,493.215 
				430.151,386.561 426.864,371.314 545.264,371.314 			"/>
		</g>
	</g>
	<g>
	</g>
	<g>
	</g>
	<g>
	</g>
	<g>
	</g>
	<g>
	</g>
	<g>
	</g>
	<g>
	</g>
	<g>
	</g>
	<g>
	</g>
	<g>
	</g>
	<g>
	</g>
	<g>
	</g>
	<g>
	</g>
	<g>
	</g>
	<g>
	</g>
</g>
<g>
</g>
<g>
</g>
<g>
</g>
<g>
</g>
<g>
</g>
<g>
</g>
<g>
</g>
<g>
</g>
<g>
</g>
<g>
</g>
<g>
</g>
<g>
</g>
<g>
</g>
<g>
</g>
<g>
</g>
</svg>
